<svg version="1.1" xmlns="http://www.w3.org/2000/svg" xmlns:xlink="http://www.w3.org/1999/xlink" width="324.33349" height="364.875" viewBox="0,0,324.33349,364.875"><defs><clipPath id="clip-1"><path d="M77.83317,362.43692v-364.8744h324.3328v364.8744z" fill="#0072e1"/></clipPath><clipPath id="clip-2"><path d="M77.83317,362.43692v-364.8744h324.3328v364.8744z"/></clipPath><clipPath id="clip-3"><path d="M134.59141,236.19471v-112.38996h210.81632v112.38996z"/></clipPath><clipPath id="clip-4"><path d="M134.59141,236.19471v-112.38996h210.81632v112.38996z"/></clipPath><clipPath id="clip-5"><path d="M134.59141,236.19471v-112.38996h210.81632v112.38996z"/></clipPath><clipPath id="clip-6"><path d="M134.59141,236.19471v-112.38996h210.81632v112.38996z"/></clipPath><clipPath id="clip-7"><path d="M134.59141,236.19471v-112.38996h210.81632v112.38996z"/></clipPath><clipPath id="clip-8"><path d="M134.59141,236.19471v-112.38996h210.81632v112.38996z"/></clipPath><clipPath id="clip-9"><path d="M134.59158,236.19494v-112.39008h210.81654v112.39008z"/></clipPath></defs><g transform="translate(-77.83317,2.4375)"><g data-paper-data="{&quot;isPaintingLayer&quot;:true}" fill-rule="nonzero" stroke-width="1" stroke-linecap="butt" stroke-linejoin="miter" stroke-miterlimit="10" stroke-dasharray="" stroke-dashoffset="0" style="mix-blend-mode: normal"><g clip-path="url(#clip-1)" stroke="none"><g fill="#000000" font-family="&quot;Helvetica Neue&quot;, Helvetica, Arial, sans-serif" font-weight="400" font-size="16" text-anchor="start"><g/></g><g fill="#0072e1"><g clip-path="url(#clip-2)"><g><path d="M100.50626,168.66354h-22.67293c1.15341,-17.67718 5.37988,-35.35436 12.2973,-51.87813c8.45395,-19.21371 19.98197,-36.50574 34.96921,-51.49298c14.60311,-14.98724 32.28029,-26.90041 51.494,-34.97023c20.36712,-8.45395 41.5025,-12.68143 63.40615,-12.68143c21.90365,0 43.03903,4.61161 63.40615,13.06557c19.21472,8.45496 36.50676,19.98299 51.494,34.97023c14.98623,14.60209 26.8994,32.27927 34.96921,51.49298c6.91742,16.52377 11.1449,33.81682 12.2973,51.87813h-22.67293c-5.76401,-71.8601 -66.09609,-128.73398 -139.49374,-128.73398c-73.39765,0 -133.72973,56.87388 -139.49374,128.34985zM379.49374,191.33646h22.67293c-1.15341,17.67718 -5.37988,35.35436 -12.2973,51.87813c-8.45395,19.21371 -19.98197,36.50574 -34.96921,51.49298c-14.60311,14.98724 -32.28029,26.90041 -51.494,34.97023c-20.36712,8.45395 -41.11736,12.68143 -63.40615,12.68143c-22.28778,0 -43.42317,-4.22748 -63.40615,-12.68143c-19.21472,-8.45496 -36.50676,-19.98299 -51.494,-34.97023c-14.98623,-14.60209 -26.8994,-32.27928 -34.96921,-51.49298c-6.91742,-16.52377 -11.1449,-33.81682 -12.2973,-51.87813h22.67293c5.76401,71.8601 66.09609,128.73398 139.49374,128.73398c73.39765,0 133.72973,-56.87388 139.49374,-128.73398z"/></g><g><g clip-path="url(#clip-3)"><g><g clip-path="url(#clip-4)"><g><g clip-path="url(#clip-5)"><g><g clip-path="url(#clip-6)"><g><g clip-path="url(#clip-7)"><g><g clip-path="url(#clip-8)"><g><g clip-path="url(#clip-9)"><path d="M184.31579,123.80493c16.23413,0 28.69922,4.39343 37.39527,13.1803c8.67334,8.80957 13.01001,21.50171 13.01001,38.07642v0c0,19.63989 -5.05188,34.73877 -15.15564,45.29663c-10.10376,10.55786 -24.57825,15.83679 -43.42347,15.83679v0c-11.80664,0 -25.65674,-0.51086 -41.5503,-1.53259v0l1.70288,-32.35474l-1.70288,-77.82166zM182.61291,210.82215c5.33569,0 9.3999,-2.13428 12.19263,-6.40283c2.77002,-4.24585 4.15503,-11.25037 4.15503,-21.01355v0c0,-8.28735 -0.56763,-14.81506 -1.70288,-19.58313c-1.13525,-4.76807 -2.95166,-8.20789 -5.44922,-10.31946c-2.49756,-2.08887 -5.96008,-3.1333 -10.38757,-3.1333v0c-4.31397,0 -8.57117,0.22705 -12.77161,0.68115v0l-1.19202,47.85096l0.34058,10.55786c6.81152,0.9082 11.74988,1.3623 14.81506,1.3623zM343.70545,124.48608l-31.5033,51.93787l33.20618,58.23853h-40.69886l-5.7898,-13.45276l-9.87671,-17.88025l-12.60132,19.58313l-5.44922,11.74988h-34.56848l32.69532,-52.9596l-33.71704,-57.2168h40.86914l5.96008,13.79334l9.70642,17.36939l11.06873,-19.24256l5.10864,-11.92017z"/></g></g></g></g></g></g></g></g></g></g></g></g></g></g></g></g></g><path d="M77.83333,362.4375v-364.875h324.33333v364.875z" fill-opacity="0" fill="#000000" stroke-opacity="0" stroke="#000000"/></g></g></svg>