<svg version="1.1" xmlns="http://www.w3.org/2000/svg" xmlns:xlink="http://www.w3.org/1999/xlink" width="208.54166" height="216.86768" viewBox="0,0,208.54166,216.86768"><defs><clipPath id="clip-1"><path d="M186.31647,208.95314v-55.90628h104.86663v55.90628z"/></clipPath><clipPath id="clip-2"><path d="M186.31647,208.95314v-55.90628h104.86663v55.90628z"/></clipPath><clipPath id="clip-3"><path d="M186.31647,208.95314v-55.90628h104.86663v55.90628z"/></clipPath><clipPath id="clip-4"><path d="M186.31647,208.95314v-55.90628h104.86663v55.90628z"/></clipPath><clipPath id="clip-5"><path d="M186.31647,208.95314v-55.90628h104.86663v55.90628z"/></clipPath><clipPath id="clip-6"><path d="M186.31647,208.95314v-55.90628h104.86663v55.90628z"/></clipPath><clipPath id="clip-7"><path d="M186.31656,208.95326v-55.90634h104.86674v55.90634z"/></clipPath><clipPath id="clip-8"><path d="M188.81647,207.95314v-55.90628h104.86663v55.90628z" fill="none"/></clipPath><clipPath id="clip-9"><path d="M188.81647,207.95314v-55.90628h104.86663v55.90628z" fill="none"/></clipPath><clipPath id="clip-10"><path d="M188.81647,207.95314v-55.90628h104.86663v55.90628z" fill="none"/></clipPath><clipPath id="clip-11"><path d="M188.81647,207.95314v-55.90628h104.86663v55.90628z" fill="none"/></clipPath><clipPath id="clip-12"><path d="M188.81647,207.95314v-55.90628h104.86663v55.90628z" fill="none"/></clipPath><clipPath id="clip-13"><path d="M188.81647,207.95314v-55.90628h104.86663v55.90628z" fill="none"/></clipPath><clipPath id="clip-14"><path d="M188.81656,207.95326v-55.90634h104.86674v55.90634z" fill="none"/></clipPath></defs><g transform="translate(-132.83334,-73.06616)"><g data-paper-data="{&quot;isPaintingLayer&quot;:true}" fill-rule="nonzero" stroke-linecap="butt" stroke-linejoin="miter" stroke-miterlimit="10" stroke-dasharray="" stroke-dashoffset="0" style="mix-blend-mode: normal"><g fill="#949494" stroke="none" stroke-width="0"><path d="M135.625,289.82642v-213.76026h11.27881v213.76026z"/><path d="M142.07003,76.17358h23.90033v11.27881h-23.90033z"/><path d="M179.12898,76.17358h159.24603v11.27881h-159.24602z"/><path d="M138.57898,278.65504h199.67395v11.2788h-199.67395z"/><path d="M338.21632,258.50209v23.90033h-11.27881v-23.90033z"/><path d="M338.24073,85.16977v161.66291h-11.27881v-161.66291z"/></g><path d="M169.36145,175.36103h-11.27822c0.57374,-8.79318 2.67612,-17.58636 6.11706,-25.8058c4.20526,-9.5575 9.93966,-18.1591 17.39478,-25.61422c7.26405,-7.45512 16.05722,-13.38111 25.61472,-17.39529c10.13125,-4.20526 20.64464,-6.30814 31.5402,-6.30814c10.89556,0 21.40896,2.29396 31.5402,6.49922c9.558,4.20576 18.15961,9.94017 25.61473,17.39529c7.45462,7.26353 13.3806,16.05671 17.39478,25.61422c3.44094,8.21944 5.54382,16.82154 6.11706,25.8058h-11.27822c-2.8672,-35.74546 -32.87826,-64.0363 -69.38855,-64.0363c-36.51029,0 -66.52135,28.29085 -69.38855,63.84523zM308.13855,186.63925h11.27823c-0.57374,8.79318 -2.67612,17.58637 -6.11706,25.8058c-4.20526,9.5575 -9.93966,18.1591 -17.39478,25.61422c-7.26405,7.45512 -16.05723,13.3811 -25.61473,17.39529c-10.13125,4.20526 -20.45306,6.30814 -31.5402,6.30814c-11.08664,0 -21.60004,-2.10288 -31.5402,-6.30814c-9.55801,-4.20576 -18.1596,-9.94017 -25.61472,-17.39529c-7.45462,-7.26353 -13.38061,-16.05673 -17.39478,-25.61422c-3.44094,-8.21944 -5.54382,-16.82154 -6.11706,-25.8058h11.27822c2.8672,35.74546 32.87826,64.03631 69.38855,64.03631c36.51029,0 66.52135,-28.29085 69.38855,-64.03631z" fill="#6b6b6b" stroke="none" stroke-width="1"/><g clip-path="url(#clip-1)" fill="#6b6b6b" stroke="none" stroke-width="1"><g><g clip-path="url(#clip-2)"><g><g clip-path="url(#clip-3)"><g><g clip-path="url(#clip-4)"><g><g clip-path="url(#clip-5)"><g><g clip-path="url(#clip-6)"><g><g clip-path="url(#clip-7)"><path d="M211.05093,153.04695c8.07537,0 14.2759,2.18543 18.60158,6.55629c4.31439,4.38216 6.47158,10.69563 6.47158,18.9404v0c0,9.7695 -2.51296,17.28015 -7.53889,22.53196c-5.02593,5.25181 -12.226,7.87771 -21.6002,7.87771v0c-5.87299,0 -12.76246,-0.25412 -20.66841,-0.76236v0l0.84706,-16.09426l-0.84706,-38.71093zM210.20387,196.33204c2.65414,0 4.6758,-1.06166 6.06499,-3.18497c1.37789,-2.11202 2.06685,-5.59629 2.06685,-10.4528v0c0,-4.12239 -0.28236,-7.36947 -0.84707,-9.74126c-0.56471,-2.37178 -1.46824,-4.08286 -2.71061,-5.13323c-1.24237,-1.03907 -2.96473,-1.5586 -5.1671,-1.5586v0c-2.1459,0 -4.26356,0.11294 -6.35299,0.33883v0l-0.59295,23.80256l0.16941,5.25181c3.38826,0.45176 5.84476,0.67765 7.36948,0.67765zM290.33633,153.38578l-15.67072,25.83552l16.51779,28.96966h-20.24488l-2.88003,-6.69182l-4.91299,-8.8942l-6.26829,9.74126l-2.71061,5.84475h-17.19544l16.26367,-26.34376l-16.77191,-28.46142h20.32959l2.96473,6.86123l4.82827,8.64008l5.50594,-9.57185l2.5412,-5.92946z"/></g></g></g></g></g></g></g></g></g></g></g></g></g><path d="M132.83334,271.4375v-181.50024h161.33354v181.50024z" fill-opacity="0" fill="#000000" stroke-opacity="0" stroke="#000000" stroke-width="1"/><g fill="#933f3f" stroke="none" stroke-width="0"><path d="M138.625,286.82642v-213.76026h11.27881v213.76026z"/><path d="M145.07003,73.17358h23.90033v11.27881h-23.90033z"/><path d="M182.12897,73.17358h159.24603v11.27881h-159.24603z"/><path d="M141.57897,275.65503h199.67396v11.27881h-199.67396z"/><path d="M341.21631,255.50209v23.90033h-11.27881v-23.90033z"/><path d="M341.24073,82.16977v161.66291h-11.27881v-161.66291z"/></g><g stroke-width="1"><path d="M171.86145,174.36103h-11.27822c0.57374,-8.79318 2.67612,-17.58636 6.11706,-25.8058c4.20526,-9.5575 9.93966,-18.1591 17.39478,-25.61422c7.26405,-7.45512 16.05722,-13.38111 25.61472,-17.39529c10.13125,-4.20526 20.64464,-6.30814 31.5402,-6.30814c10.89556,0 21.40896,2.29396 31.5402,6.49922c9.558,4.20576 18.15961,9.94017 25.61473,17.39529c7.45462,7.26353 13.3806,16.05671 17.39478,25.61422c3.44094,8.21944 5.54382,16.82154 6.11706,25.8058h-11.27822c-2.8672,-35.74546 -32.87826,-64.0363 -69.38855,-64.0363c-36.51029,0 -66.52135,28.29085 -69.38855,63.84523zM310.63855,185.63925h11.27823c-0.57374,8.79318 -2.67612,17.58637 -6.11706,25.8058c-4.20526,9.5575 -9.93966,18.1591 -17.39478,25.61422c-7.26405,7.45512 -16.05723,13.3811 -25.61473,17.39529c-10.13125,4.20526 -20.45306,6.30814 -31.5402,6.30814c-11.08664,0 -21.60004,-2.10288 -31.5402,-6.30814c-9.55801,-4.20576 -18.1596,-9.94017 -25.61472,-17.39529c-7.45462,-7.26353 -13.38061,-16.05673 -17.39478,-25.61422c-3.44094,-8.21944 -5.54382,-16.82154 -6.11706,-25.8058h11.27822c2.8672,35.74546 32.87826,64.03631 69.38855,64.03631c36.51029,0 66.52135,-28.29085 69.38855,-64.03631z" fill="#b14c4c" stroke="none"/><g clip-path="url(#clip-8)" stroke="none"><g><g clip-path="url(#clip-9)"><g><g clip-path="url(#clip-10)"><g><g clip-path="url(#clip-11)"><g><g clip-path="url(#clip-12)"><g><g clip-path="url(#clip-13)"><g><g clip-path="url(#clip-14)"><path d="M213.55093,152.04695c8.07537,0 14.2759,2.18543 18.60158,6.55629c4.31439,4.38216 6.47158,10.69563 6.47158,18.9404v0c0,9.7695 -2.51296,17.28015 -7.53889,22.53196c-5.02593,5.25181 -12.226,7.87771 -21.6002,7.87771v0c-5.87299,0 -12.76246,-0.25412 -20.66841,-0.76236v0l0.84706,-16.09426l-0.84706,-38.71093zM212.70387,195.33204c2.65414,0 4.6758,-1.06166 6.06499,-3.18497c1.37789,-2.11202 2.06685,-5.59629 2.06685,-10.4528v0c0,-4.12239 -0.28236,-7.36947 -0.84707,-9.74126c-0.56471,-2.37178 -1.46824,-4.08286 -2.71061,-5.13323c-1.24237,-1.03907 -2.96473,-1.5586 -5.1671,-1.5586v0c-2.1459,0 -4.26356,0.11294 -6.35299,0.33883v0l-0.59295,23.80256l0.16941,5.25181c3.38826,0.45176 5.84476,0.67765 7.36948,0.67765zM292.83633,152.38578l-15.67072,25.83552l16.51779,28.96966h-20.24488l-2.88003,-6.69182l-4.91299,-8.8942l-6.26829,9.74126l-2.71061,5.84475h-17.19545l16.26367,-26.34376l-16.77191,-28.46142h20.32959l2.96473,6.86123l4.82827,8.64008l5.50594,-9.57185l2.5412,-5.92946z" fill="#b14c4c"/></g></g></g></g></g></g></g></g></g></g></g></g></g><path d="M160.58301,270.75012v-181.50024h161.33355v181.50024z" fill-opacity="0" fill="#000000" stroke-opacity="0" stroke="#000000"/></g></g></g></svg>